<?xml version="1.0" encoding="UTF-8" standalone="no"?>
<svg
   xmlns:dc="http://purl.org/dc/elements/1.1/"
   xmlns:cc="http://creativecommons.org/ns#"
   xmlns:rdf="http://www.w3.org/1999/02/22-rdf-syntax-ns#"
   xmlns:svg="http://www.w3.org/2000/svg"
   xmlns="http://www.w3.org/2000/svg"
   xmlns:sodipodi="http://sodipodi.sourceforge.net/DTD/sodipodi-0.dtd"
   xmlns:inkscape="http://www.inkscape.org/namespaces/inkscape"
   version="1.0"
   width="199.000000pt"
   height="141.000000pt"
   viewBox="0 0 199.000000 141.000000"
   preserveAspectRatio="xMidYMid meet"
   id="svg2"
   inkscape:version="0.91 r13725"
   sodipodi:docname="color_flying_txdot_logo.svg">
  <defs
     id="defs14" />
  <sodipodi:namedview
     pagecolor="#ffffff"
     bordercolor="#666666"
     borderopacity="1"
     objecttolerance="10"
     gridtolerance="10"
     guidetolerance="10"
     inkscape:pageopacity="0"
     inkscape:pageshadow="2"
     inkscape:window-width="1920"
     inkscape:window-height="1018"
     id="namedview12"
     showgrid="false"
     inkscape:zoom="4"
     inkscape:cx="124.375"
     inkscape:cy="88.125"
     inkscape:window-x="1272"
     inkscape:window-y="-8"
     inkscape:window-maximized="1"
     inkscape:current-layer="svg2" />
  <metadata
     id="metadata4">
Created by potrace 1.15, written by Peter Selinger 2001-2017
<rdf:RDF>
  <cc:Work
     rdf:about="">
    <dc:format>image/svg+xml</dc:format>
    <dc:type
       rdf:resource="http://purl.org/dc/dcmitype/StillImage" />
  </cc:Work>
</rdf:RDF>
</metadata>
  <g
     transform="matrix(0.08668731,0,0,-0.11191047,20.33127,149.35283)"
     id="g6"
     style="fill:#000000;stroke:none">
    <path
       d="m 1360,1211 -85,-121 -119,0 c -104,0 -117,-2 -106,-15 11,-13 -30,-15 -346,-18 l -359,-2 366,-3 c 351,-2 367,-3 384,-22 18,-20 16,-20 -386,-23 l -404,-2 416,-3 c 355,-2 418,-4 429,-17 11,-13 -40,-15 -431,-18 l -444,-2 455,-5 455,-5 -460,-5 -460,-5 453,-3 c 293,-1 452,-6 452,-12 0,-6 -87,-11 -237,-12 l -238,-3 228,-2 c 310,-4 303,-22 -10,-25 l -238,-3 228,-2 c 140,-2 227,-7 227,-13 0,-6 -168,-11 -462,-12 l -463,-3 455,-5 455,-5 -465,-5 -465,-5 457,-2 c 400,-3 457,-5 452,-18 -5,-13 -70,-15 -473,-17 l -466,-3 458,-2 c 299,-2 456,-7 452,-13 -4,-6 -73,-11 -163,-12 l -157,-2 155,-6 c 109,-4 17,-7 -310,-10 l -465,-5 458,-2 c 339,-2 456,-6 451,-15 -6,-10 216,103 243,124 9,7 37,-11 95,-61 l 83,-71 5,118 5,117 125,67 125,68 -132,0 -132,0 -3,121 -3,120 -85,-120 z"
       id="path8"
       inkscape:connector-curvature="0" />
    <path
       d="M 370,493 C 302,389 214,254 173,193 l -73,-113 170,0 170,0 185,281 c 102,154 190,289 195,300 10,18 6,19 -158,19 L 492,680 370,493 Z"
       id="path10"
       inkscape:connector-curvature="0" />
  </g>
</svg>
