<?xml version="1.0" encoding="UTF-8" standalone="no"?>
<svg
   xmlns:dc="http://purl.org/dc/elements/1.1/"
   xmlns:cc="http://creativecommons.org/ns#"
   xmlns:rdf="http://www.w3.org/1999/02/22-rdf-syntax-ns#"
   xmlns:svg="http://www.w3.org/2000/svg"
   xmlns="http://www.w3.org/2000/svg"
   xmlns:sodipodi="http://sodipodi.sourceforge.net/DTD/sodipodi-0.dtd"
   xmlns:inkscape="http://www.inkscape.org/namespaces/inkscape"
   viewBox="0 0 100 100"
   id="svg2"
   version="1.1"
   inkscape:version="0.91 r13725"
   sodipodi:docname="dark_T_logo.svg">
  <metadata
     id="metadata16">
    <rdf:RDF>
      <cc:Work
         rdf:about="">
        <dc:format>image/svg+xml</dc:format>
        <dc:type
           rdf:resource="http://purl.org/dc/dcmitype/StillImage" />
        <dc:title></dc:title>
      </cc:Work>
    </rdf:RDF>
  </metadata>
  <defs
     id="defs14" />
  <sodipodi:namedview
     pagecolor="#ffffff"
     bordercolor="#666666"
     borderopacity="1"
     objecttolerance="10"
     gridtolerance="10"
     guidetolerance="10"
     inkscape:pageopacity="0"
     inkscape:pageshadow="2"
     inkscape:window-width="1095"
     inkscape:window-height="785"
     id="namedview12"
     showgrid="false"
     inkscape:zoom="4.72"
     inkscape:cx="50"
     inkscape:cy="50"
     inkscape:window-x="1703"
     inkscape:window-y="59"
     inkscape:window-maximized="0"
     inkscape:current-layer="svg2" />
  <g
     id="g4">
    <path
       d="M64.8 52.7h-2.6l-1.1 7.9h2c5 0 6-2.1 6-4.9C69.2 53.6 67.7 52.7 64.8 52.7zM32.4 52.7h-2.5v7.9H32c3.3 0 5.5-.7 5.5-3.9C37.5 53.9 35.8 52.7 32.4 52.7zM36.2 42.3c0-2.1-1.2-3.1-4.7-3.1h-1.6v6.7h1.8C35 45.9 36.2 44.9 36.2 42.3z"
       id="path6" />
    <path
       d="M0,0v100h100V0H0z M31.9,68.1H19.2V31.9h11.3c10.2,0,16.6,2.3,16.6,9.4c0,4.7-3.3,6.8-6.6,7.7c4,0.8,8.1,2.8,8.1,8.5 C48.6,66,41.4,68.1,31.9,68.1z M80,56.6c0,6.3-4.4,11.5-17.9,11.5H49.7l5-36.2h11c9.2,0,15.1,2,15.1,8.4c0,5.3-4,7.7-7.9,8.7 C76.6,49.7,80,51.4,80,56.6z"
       id="path8" />
    <path
       d="M65.7,39.2h-1.6l-0.9,6.7H65c4.4,0,4.9-2.4,4.9-4.3C69.9,40,68.8,39.2,65.7,39.2z"
       id="path10" />
  </g>
</svg>
